<?xml version="1.0" encoding="UTF-8" standalone="no"?>
<svg
   xmlns:dc="http://purl.org/dc/elements/1.1/"
   xmlns:cc="http://creativecommons.org/ns#"
   xmlns:rdf="http://www.w3.org/1999/02/22-rdf-syntax-ns#"
   xmlns:svg="http://www.w3.org/2000/svg"
   xmlns="http://www.w3.org/2000/svg"
   xmlns:sodipodi="http://sodipodi.sourceforge.net/DTD/sodipodi-0.dtd"
   xmlns:inkscape="http://www.inkscape.org/namespaces/inkscape"
   version="1.1"
   id="svg2"
   xml:space="preserve"
   width="527.44"
   height="303.82666"
   viewBox="0 0 527.44 303.82666"
   sodipodi:docname="AI_LOGO_DIA_COLOUR.eps"><metadata
     id="metadata8"><rdf:RDF><cc:Work
         rdf:about=""><dc:format>image/svg+xml</dc:format><dc:type
           rdf:resource="http://purl.org/dc/dcmitype/StillImage" /></cc:Work></rdf:RDF></metadata><defs
     id="defs6" /><sodipodi:namedview
     pagecolor="#ffffff"
     bordercolor="#666666"
     borderopacity="1"
     objecttolerance="10"
     gridtolerance="10"
     guidetolerance="10"
     inkscape:pageopacity="0"
     inkscape:pageshadow="2"
     inkscape:window-width="640"
     inkscape:window-height="480"
     id="namedview4" /><g
     id="g10"
     inkscape:groupmode="layer"
     inkscape:label="ink_ext_XXXXXX"
     transform="matrix(1.3333333,0,0,-1.3333333,0,303.82667)"><g
       id="g12"
       transform="scale(0.1)"><path
         d="m 633.766,1212.36 c -20.379,0 -40.758,7.77 -56.309,23.32 -31.098,31.1 -31.098,81.52 0,112.62 l 905.763,905.75 c 32.91,32.92 86.47,32.92 119.39,0 l 355.68,-355.68 c 31.1,-31.1 31.1,-81.52 0,-112.62 -31.09,-31.09 -81.52,-31.09 -112.61,0 l -302.77,302.77 -852.836,-852.84 c -15.547,-15.55 -35.926,-23.32 -56.308,-23.32"
         style="fill:#f47258;fill-opacity:1;fill-rule:nonzero;stroke:none"
         id="path14" /><path
         d="m 3347.64,2270.91 c 20.38,0 40.76,-7.77 56.31,-23.32 31.1,-31.1 31.1,-81.52 0,-112.61 l -893.77,-893.77 c -32.91,-32.92 -86.48,-32.92 -119.39,0 l -349.55,349.55 c -31.1,31.1 -31.1,81.51 0,112.62 31.1,31.09 81.52,31.09 112.62,0 l 296.63,-296.63 840.84,840.84 c 15.55,15.55 35.93,23.32 56.31,23.32"
         style="fill:#f1f0e6;fill-opacity:1;fill-rule:nonzero;stroke:none"
         id="path16" /><path
         d="M 97.9141,150.48 H 307.535 L 202.395,410.051 Z M 319.371,116.309 H 86.082 L 42.0547,8.53906 H 0 L 179.398,446.852 h 46.653 L 405.453,8.53906 H 363.395 L 319.371,116.309"
         style="fill:#f47258;fill-opacity:1;fill-rule:nonzero;stroke:none"
         id="path18" /><path
         d="m 771.449,446.852 h 37.446 V 8.53906 H 771.449 V 446.852"
         style="fill:#f1f0e6;fill-opacity:1;fill-rule:nonzero;stroke:none"
         id="path20" /><path
         d="M 1021.14,387.051 V 8.53906 H 983.684 V 446.852 H 1021.8 L 1296.48,73.6016 V 446.852 h 37.46 V 8.53906 h -36.8 l -276,378.51194"
         style="fill:#f1f0e6;fill-opacity:1;fill-rule:nonzero;stroke:none"
         id="path22" /><path
         d="m 1508.73,98.5586 c 28.25,-32.8477 74.24,-63.7305 136.68,-63.7305 90.01,0 115.65,49.9414 115.65,87.3909 0,61.769 -59.15,78.851 -120.26,95.281 -68.99,19.059 -142.59,38.77 -142.59,119.609 0,71.61 64.38,116.961 143.91,116.961 65.05,0 114.33,-23 148.5,-61.761 l -24.97,-27.61 c -31.55,38.121 -76.22,55.199 -125.5,55.199 -58.5,0 -102.52,-33.507 -102.52,-80.82 0,-51.906 54.53,-67.039 114.33,-83.457 70.32,-19.723 148.52,-42.051 148.52,-131.422 0,-55.8592 -37.45,-123.538844 -155.75,-123.538844 -72.27,0 -126.81,28.910144 -160.32,69.648444 l 24.32,28.25"
         style="fill:#f1f0e6;fill-opacity:1;fill-rule:nonzero;stroke:none"
         id="path24" /><path
         d="m 1956.22,446.852 h 37.45 V 8.53906 h -37.45 V 446.852"
         style="fill:#f1f0e6;fill-opacity:1;fill-rule:nonzero;stroke:none"
         id="path26" /><path
         d="m 2374.14,454.07 c 72.28,0 124.85,-28.91 164.94,-74.91 l -28.26,-20.379 c -30.89,36.801 -80.82,61.117 -136.68,61.117 -103.17,0 -182.69,-78.199 -182.69,-192.539 0,-113.027 79.52,-193.1871 182.69,-193.1871 58.47,0 104.47,28.9101 128.78,53.2265 V 191.879 h -166.25 v 34.172 H 2540.4 V 72.9414 C 2500.96,29.5703 2443.13,0 2374.14,0 c -123.55,0 -222.12,92 -222.12,227.359 0,135.371 98.57,226.711 222.12,226.711"
         style="fill:#f1f0e6;fill-opacity:1;fill-rule:nonzero;stroke:none"
         id="path28" /><path
         d="M 3016.79,216.84 H 2738.83 V 8.53906 h -37.46 V 446.852 h 37.46 v -195.84 h 277.96 v 195.84 h 38.12 V 8.53906 h -38.12 V 216.84"
         style="fill:#f1f0e6;fill-opacity:1;fill-rule:nonzero;stroke:none"
         id="path30" /><path
         d="M 3340.73,412.672 H 3197.5 v 34.18 h 324.61 v -34.18 H 3378.85 V 8.53906 h -38.12 V 412.672"
         style="fill:#f1f0e6;fill-opacity:1;fill-rule:nonzero;stroke:none"
         id="path32" /><path
         d="m 3664.05,98.5586 c 28.26,-32.8477 74.25,-63.7305 136.68,-63.7305 90.02,0 115.66,49.9414 115.66,87.3909 0,61.769 -59.15,78.851 -120.27,95.281 -68.98,19.059 -142.58,38.77 -142.58,119.609 0,71.61 64.38,116.961 143.91,116.961 65.05,0 114.33,-23 148.5,-61.761 l -24.98,-27.61 c -31.54,38.121 -76.21,55.199 -125.49,55.199 -58.5,0 -102.53,-33.507 -102.53,-80.82 0,-51.906 54.54,-67.039 114.34,-83.457 70.32,-19.723 148.51,-42.051 148.51,-131.422 0,-55.8592 -37.44,-123.538844 -155.74,-123.538844 -72.28,0 -126.82,28.910144 -160.33,69.648444 l 24.32,28.25"
         style="fill:#f1f0e6;fill-opacity:1;fill-rule:nonzero;stroke:none"
         id="path34" /></g></g></svg>
